<?xml version="1.0" encoding="UTF-8" standalone="no"?>
<svg
   width="24"
   height="24"
   viewBox="0 0 24 24"
   preserveAspectRatio="xMinYMid meet"
   version="1.1"
   id="svg316"
   sodipodi:docname="icon.svg"
   inkscape:version="1.2.1 (9c6d41e410, 2022-07-14)"
   xmlns:inkscape="http://www.inkscape.org/namespaces/inkscape"
   xmlns:sodipodi="http://sodipodi.sourceforge.net/DTD/sodipodi-0.dtd"
   xmlns="http://www.w3.org/2000/svg"
   xmlns:svg="http://www.w3.org/2000/svg"
   xmlns:rdf="http://www.w3.org/1999/02/22-rdf-syntax-ns#"
   xmlns:cc="http://creativecommons.org/ns#"
   xmlns:dc="http://purl.org/dc/elements/1.1/">
  <defs
     id="defs320" />
  <sodipodi:namedview
     id="namedview318"
     pagecolor="#ffffff"
     bordercolor="#000000"
     borderopacity="0.25"
     inkscape:showpageshadow="2"
     inkscape:pageopacity="0.0"
     inkscape:pagecheckerboard="0"
     inkscape:deskcolor="#d1d1d1"
     showgrid="false"
     inkscape:zoom="17.270833"
     inkscape:cx="14.648975"
     inkscape:cy="16.733414"
     inkscape:window-width="1920"
     inkscape:window-height="1009"
     inkscape:window-x="1912"
     inkscape:window-y="-8"
     inkscape:window-maximized="1"
     inkscape:current-layer="svg316" />
  <title
     id="title310">h5p</title>
  <rect
     width="24"
     height="24"
     rx="3"
     ry="3"
     fill="#0882c8"
     id="rect312" />
  <path
     d="M22.1,8a3.37,3.37,0,0,0-2.42-.77H16.05v2H11.71l-.36,1.46a6.33,6.33,0,0,1,1-.35,3.49,3.49,0,0,1,.86-.06,3.24,3.24,0,0,1,2.35.88,2.93,2.93,0,0,1,.9,2.2A3.72,3.72,0,0,1,16,15.19a3.16,3.16,0,0,1-1.31,1.32,3.41,3.41,0,0,1-.67.27H17.7V13.28h1.65A3.8,3.8,0,0,0,22,12.46a3,3,0,0,0,.88-2.28A2.9,2.9,0,0,0,22.1,8Zm-2.44,3a1.88,1.88,0,0,1-1.21.29H17.7V9.2h.87a1.56,1.56,0,0,1,1.13.31,1,1,0,0,1,.3.76A.94.94,0,0,1,19.66,11Zm-6.07,2.36a1.32,1.32,0,0,1-2.5.59l-2.61.38A4,4,0,0,0,9,15.43a3.2,3.2,0,0,0,.77.81,3.61,3.61,0,0,0,1.13.53H7.29V13.28H4v3.49H1.1V7.23H4v4.08H7.29V7.23H9.65l-1.17,5.2,2.6.37a1.32,1.32,0,0,1,2.51.59Z"
     fill="#fff"
     id="path314" />
  <metadata
     id="metadata725">
    <rdf:RDF>
      <cc:Work
         rdf:about="">
        <dc:title>h5p</dc:title>
      </cc:Work>
    </rdf:RDF>
  </metadata>
</svg>
