<?xml version="1.0" encoding="UTF-8" standalone="no"?>
<!-- Generator: Adobe Illustrator 25.2.1, SVG Export Plug-In . SVG Version: 6.00 Build 0)  -->

<svg
   width="24px"
   height="24px"
   version="1.1"
   id="Layer_1"
   x="0px"
   y="0px"
   viewBox="0 0 74.4 74.4"
   style="enable-background:new 0 0 74.4 74.4;"
   xml:space="preserve"
   preserveAspectRatio="xMinYMid meet"
   sodipodi:docname="monologo.svg"
   inkscape:version="1.2.1 (9c6d41e410, 2022-07-14)"
   inkscape:export-filename="monologo.png"
   inkscape:export-xdpi="96"
   inkscape:export-ydpi="96"
   xmlns:inkscape="http://www.inkscape.org/namespaces/inkscape"
   xmlns:sodipodi="http://sodipodi.sourceforge.net/DTD/sodipodi-0.dtd"
   xmlns="http://www.w3.org/2000/svg"
   xmlns:svg="http://www.w3.org/2000/svg"><defs
   id="defs448" /><sodipodi:namedview
   id="namedview446"
   pagecolor="#ffffff"
   bordercolor="#000000"
   borderopacity="0.25"
   inkscape:showpageshadow="2"
   inkscape:pageopacity="0.0"
   inkscape:pagecheckerboard="0"
   inkscape:deskcolor="#d1d1d1"
   showgrid="false"
   inkscape:zoom="12.212323"
   inkscape:cx="2.2108815"
   inkscape:cy="15.476171"
   inkscape:window-width="1920"
   inkscape:window-height="1009"
   inkscape:window-x="1912"
   inkscape:window-y="-8"
   inkscape:window-maximized="1"
   inkscape:current-layer="Layer_1" />
<g
   id="g443"
   transform="translate(0.1625,-11.169046)">
	<path
   d="M 40.9,38.3 C 39,36.8 36.2,37.1 34.7,39 v 0 L 34,39.8 29.7,39.2 c -2.4,-0.3 -4.3,-0.7 -4.4,-0.7 0,-0.6 0.1,-1.2 0.3,-1.8 0.3,-1.6 3.3,-14.7 3.5,-15.4 L 29.2,21 h -8 v 13.9 h -11 V 21 h -10 v 32.3 h 10 v -12 H 21 v 11.9 h 6 c 3.2,0 5.9,0 5.8,-0.1 -0.3,-0.2 -0.8,-0.3 -1.1,-0.5 -2.1,-0.8 -3.9,-2.4 -5.1,-4.3 -0.7,-1.1 -1.5,-3.2 -1.4,-3.4 0.2,-0.2 2,-0.3 4.4,-0.7 l 4.3,-0.6 0.8,0.8 c 1.5,1.9 4.3,2.1 6.2,0.6 1.9,-1.5 2.1,-4.3 0.6,-6.2 -0.2,0 -0.4,-0.3 -0.6,-0.5 z"
   id="path439" />
	<path
   d="m 74.2,30.8 c 0.1,-1.2 -0.1,-2.5 -0.4,-3.6 -1,-3.1 -3,-4.9 -6.4,-5.8 C 66.2,21.1 65.6,21.1 58.6,21 H 51 v 6.7 H 36.4 l -0.5,2.2 c -0.3,1.2 -0.5,2.3 -0.6,2.5 0,0.1 0,0.2 0.2,0.1 0.2,-0.1 0.8,-0.3 1.7,-0.5 1.4,-0.4 1.6,-0.4 4.2,-0.4 2.5,0 2.9,0.1 4.1,0.4 1.7,0.5 3.2,1.5 4.4,2.8 1.9,1.9 2.9,4.4 2.7,7.1 0,5 -3,9.7 -6.9,11 -0.3,0.1 -0.7,0.3 -0.9,0.4 1.9,0.2 3.8,0.2 5.7,0.2 h 5.8 v -12 H 59 c 2.7,0.1 5.4,-0.1 8,-0.6 3.4,-0.8 6,-3.4 6.9,-6.7 0.3,-1.2 0.4,-2.3 0.3,-3.4 z m -9.8,1.4 c -0.4,1.1 -1.3,1.9 -2.5,2.3 -1.1,0.3 -2.2,0.3 -3.4,0.3 L 56,34.9 v -7.5 l 2.6,0.1 c 1.1,0 2.1,0.1 3.2,0.3 2,0.5 3.1,2.5 2.6,4.4 z"
   id="path441" />
</g>
<rect
   style="fill:none;fill-opacity:1;stroke:#000000;stroke-width:1.70849;stroke-linecap:round;stroke-linejoin:round;stroke-dasharray:none;stroke-opacity:1"
   id="rect3104"
   width="6.8165493"
   height="3.728868"
   x="61.075104"
   y="69.340248" /><path
   style="fill:none;stroke:#000000;stroke-width:1.70849;stroke-linecap:round;stroke-linejoin:round;stroke-dasharray:none;stroke-opacity:1"
   d="m 68.30477,66.379089 h -7.711646 c -0.172137,-6.872808 -5.12474,-6.132003 -5.071874,-13.907743 0.02477,-3.644705 2.805716,-8.789469 8.927696,-8.794452 6.121982,-0.005 8.939364,4.817998 8.934302,8.76022 -0.0097,7.521079 -4.906339,7.069167 -5.078478,13.941975 z"
   id="path3160-2"
   sodipodi:nodetypes="ccszsc" /></svg>
